<?xml version="1.0" encoding="UTF-8" standalone="no"?>
<!DOCTYPE svg PUBLIC "-//W3C//DTD SVG 1.1//EN" "http://www.w3.org/Graphics/SVG/1.1/DTD/svg11.dtd">
<svg width="100%" height="100%" viewBox="0 0 236 50" version="1.1" xmlns="http://www.w3.org/2000/svg" xmlns:xlink="http://www.w3.org/1999/xlink" xml:space="preserve" xmlns:serif="http://www.serif.com/" style="fill-rule:evenodd;clip-rule:evenodd;">
    <g transform="matrix(1.24868,0,0,1.25,0,0)">
        <path d="M188.5,3.3L188.5,36.7C188.5,38.245 187.244,39.5 185.697,39.5L3.303,39.5C1.756,39.5 0.5,38.245 0.5,36.7L0.5,3.3C0.5,1.755 1.756,0.5 3.303,0.5L185.697,0.5C187.244,0.5 188.5,1.755 188.5,3.3Z" style="fill:rgb(19,19,20);"/>
    </g>
    <g transform="matrix(1.24868,0,0,1.25,0,0)">
        <path d="M31.6,20.227C31.6,19.518 31.536,18.836 31.418,18.182L22,18.182L22,22.05L27.382,22.05C27.15,23.3 26.446,24.359 25.386,25.068L25.386,27.577L28.618,27.577C30.509,25.836 31.6,23.273 31.6,20.227Z" style="fill:rgb(66,133,244);fill-rule:nonzero;"/>
        <path d="M22,30C24.7,30 26.964,29.105 28.618,27.577L25.386,25.068C24.491,25.668 23.345,26.023 22,26.023C19.395,26.023 17.191,24.264 16.405,21.9L13.064,21.9L13.064,24.491C14.709,27.759 18.091,30 22,30Z" style="fill:rgb(52,168,83);fill-rule:nonzero;"/>
        <path d="M16.405,21.9C16.205,21.3 16.091,20.659 16.091,20C16.091,19.341 16.205,18.7 16.405,18.1L16.405,15.509L13.064,15.509C12.386,16.859 12,18.386 12,20C12,21.614 12.386,23.141 13.064,24.491L16.405,21.9Z" style="fill:rgb(251,188,4);fill-rule:nonzero;"/>
        <path d="M22,13.977C23.468,13.977 24.786,14.482 25.823,15.473L28.691,12.605C26.959,10.991 24.695,10 22,10C18.091,10 14.709,12.241 13.064,15.509L16.405,18.1C17.191,15.736 19.395,13.977 22,13.977Z" style="fill:rgb(233,66,53);fill-rule:nonzero;"/>
    </g>
    <g transform="matrix(1.24868,0,0,1.25,0,0)">
        <path d="M48.891,21.76L50.6,21.76C50.545,22.412 50.363,22.993 50.053,23.503C49.743,24.009 49.308,24.408 48.747,24.699C48.187,24.991 47.505,25.137 46.703,25.137C46.088,25.137 45.534,25.027 45.042,24.809C44.55,24.585 44.128,24.271 43.777,23.865C43.426,23.455 43.158,22.961 42.971,22.382C42.788,21.803 42.697,21.156 42.697,20.44L42.697,19.613C42.697,18.898 42.791,18.251 42.978,17.672C43.169,17.093 43.442,16.599 43.798,16.189C44.153,15.774 44.579,15.457 45.076,15.238C45.578,15.02 46.14,14.91 46.765,14.91C47.558,14.91 48.228,15.056 48.774,15.348C49.321,15.639 49.745,16.043 50.046,16.558C50.351,17.073 50.538,17.663 50.606,18.328L48.898,18.328C48.852,17.9 48.752,17.533 48.597,17.228C48.446,16.922 48.223,16.69 47.927,16.53C47.631,16.366 47.243,16.284 46.765,16.284C46.373,16.284 46.031,16.357 45.739,16.503C45.448,16.649 45.204,16.863 45.008,17.145C44.812,17.428 44.664,17.777 44.564,18.191C44.468,18.602 44.42,19.071 44.42,19.6L44.42,20.44C44.42,20.942 44.463,21.398 44.55,21.808C44.641,22.213 44.778,22.562 44.96,22.854C45.147,23.145 45.384,23.371 45.671,23.53C45.958,23.69 46.302,23.77 46.703,23.77C47.191,23.77 47.585,23.692 47.886,23.537C48.191,23.382 48.421,23.157 48.576,22.86C48.736,22.56 48.841,22.193 48.891,21.76ZM51.68,21.384L51.68,21.227C51.68,20.693 51.757,20.199 51.912,19.743C52.067,19.283 52.29,18.884 52.582,18.547C52.878,18.205 53.238,17.941 53.662,17.754C54.091,17.563 54.574,17.467 55.111,17.467C55.654,17.467 56.137,17.563 56.561,17.754C56.989,17.941 57.351,18.205 57.648,18.547C57.944,18.884 58.169,19.283 58.324,19.743C58.479,20.199 58.557,20.693 58.557,21.227L58.557,21.384C58.557,21.917 58.479,22.412 58.324,22.867C58.169,23.323 57.944,23.722 57.648,24.064C57.351,24.401 56.991,24.665 56.567,24.856C56.144,25.043 55.663,25.137 55.125,25.137C54.583,25.137 54.097,25.043 53.669,24.856C53.245,24.665 52.885,24.401 52.589,24.064C52.293,23.722 52.067,23.323 51.912,22.867C51.757,22.412 51.68,21.917 51.68,21.384ZM53.327,21.227L53.327,21.384C53.327,21.717 53.361,22.031 53.43,22.327C53.498,22.623 53.605,22.883 53.751,23.106C53.897,23.33 54.084,23.505 54.312,23.633C54.539,23.76 54.811,23.824 55.125,23.824C55.43,23.824 55.695,23.76 55.918,23.633C56.146,23.505 56.333,23.33 56.478,23.106C56.624,22.883 56.731,22.623 56.8,22.327C56.873,22.031 56.909,21.717 56.909,21.384L56.909,21.227C56.909,20.898 56.873,20.589 56.8,20.297C56.731,20.001 56.622,19.739 56.472,19.511C56.326,19.283 56.139,19.105 55.911,18.978C55.688,18.845 55.421,18.779 55.111,18.779C54.801,18.779 54.533,18.845 54.305,18.978C54.081,19.105 53.897,19.283 53.751,19.511C53.605,19.739 53.498,20.001 53.43,20.297C53.361,20.589 53.327,20.898 53.327,21.227ZM61.571,19.183L61.571,25L59.924,25L59.924,17.604L61.476,17.604L61.571,19.183ZM61.277,21.028L60.744,21.022C60.749,20.497 60.822,20.017 60.963,19.579C61.109,19.142 61.309,18.766 61.565,18.451C61.824,18.137 62.134,17.895 62.494,17.727C62.854,17.553 63.255,17.467 63.697,17.467C64.053,17.467 64.374,17.517 64.661,17.617C64.953,17.713 65.201,17.87 65.406,18.089C65.616,18.308 65.775,18.592 65.885,18.943C65.994,19.29 66.049,19.716 66.049,20.222L66.049,25L64.394,25L64.394,20.215C64.394,19.859 64.342,19.579 64.237,19.374C64.137,19.164 63.989,19.016 63.793,18.93C63.602,18.839 63.362,18.793 63.075,18.793C62.793,18.793 62.54,18.852 62.316,18.971C62.093,19.089 61.904,19.251 61.749,19.456C61.599,19.661 61.482,19.898 61.4,20.167C61.318,20.436 61.277,20.723 61.277,21.028ZM71.121,17.604L71.121,18.807L66.951,18.807L66.951,17.604L71.121,17.604ZM68.154,15.792L69.802,15.792L69.802,22.956C69.802,23.184 69.834,23.359 69.897,23.482C69.966,23.601 70.059,23.681 70.178,23.722C70.296,23.763 70.435,23.783 70.595,23.783C70.709,23.783 70.818,23.776 70.923,23.763C71.028,23.749 71.112,23.735 71.176,23.722L71.183,24.98C71.046,25.02 70.886,25.057 70.704,25.089C70.526,25.121 70.321,25.137 70.089,25.137C69.711,25.137 69.376,25.071 69.084,24.939C68.792,24.802 68.565,24.581 68.4,24.275C68.236,23.97 68.154,23.565 68.154,23.059L68.154,15.792ZM74.156,17.604L74.156,25L72.502,25L72.502,17.604L74.156,17.604ZM72.393,15.662C72.393,15.412 72.475,15.204 72.639,15.04C72.807,14.871 73.04,14.787 73.336,14.787C73.628,14.787 73.858,14.871 74.026,15.04C74.195,15.204 74.279,15.412 74.279,15.662C74.279,15.908 74.195,16.113 74.026,16.277C73.858,16.441 73.628,16.523 73.336,16.523C73.04,16.523 72.807,16.441 72.639,16.277C72.475,16.113 72.393,15.908 72.393,15.662ZM77.595,19.183L77.595,25L75.947,25L75.947,17.604L77.499,17.604L77.595,19.183ZM77.301,21.028L76.768,21.022C76.772,20.497 76.845,20.017 76.986,19.579C77.132,19.142 77.333,18.766 77.588,18.451C77.848,18.137 78.158,17.895 78.518,17.727C78.878,17.553 79.279,17.467 79.721,17.467C80.076,17.467 80.397,17.517 80.685,17.617C80.976,17.713 81.225,17.87 81.43,18.089C81.639,18.308 81.799,18.592 81.908,18.943C82.018,19.29 82.072,19.716 82.072,20.222L82.072,25L80.418,25L80.418,20.215C80.418,19.859 80.366,19.579 80.261,19.374C80.161,19.164 80.012,19.016 79.816,18.93C79.625,18.839 79.386,18.793 79.099,18.793C78.816,18.793 78.563,18.852 78.34,18.971C78.117,19.089 77.927,19.251 77.772,19.456C77.622,19.661 77.506,19.898 77.424,20.167C77.342,20.436 77.301,20.723 77.301,21.028ZM88.204,23.257L88.204,17.604L89.858,17.604L89.858,25L88.3,25L88.204,23.257ZM88.437,21.719L88.99,21.705C88.99,22.202 88.936,22.66 88.826,23.079C88.717,23.494 88.548,23.856 88.32,24.166C88.092,24.471 87.801,24.711 87.445,24.884C87.09,25.052 86.664,25.137 86.167,25.137C85.807,25.137 85.477,25.084 85.176,24.98C84.875,24.875 84.615,24.713 84.397,24.494C84.182,24.275 84.016,23.991 83.897,23.64C83.779,23.289 83.72,22.869 83.72,22.382L83.72,17.604L85.367,17.604L85.367,22.395C85.367,22.664 85.399,22.89 85.463,23.072C85.527,23.25 85.613,23.394 85.723,23.503C85.832,23.612 85.96,23.69 86.106,23.735C86.251,23.781 86.406,23.804 86.57,23.804C87.04,23.804 87.409,23.713 87.678,23.53C87.951,23.343 88.145,23.093 88.259,22.778C88.377,22.464 88.437,22.111 88.437,21.719ZM94.808,25.137C94.261,25.137 93.766,25.048 93.324,24.87C92.887,24.688 92.513,24.435 92.203,24.111C91.898,23.788 91.663,23.407 91.499,22.97C91.335,22.532 91.253,22.061 91.253,21.555L91.253,21.281C91.253,20.703 91.337,20.178 91.506,19.709C91.675,19.24 91.909,18.839 92.21,18.506C92.511,18.169 92.866,17.911 93.276,17.733C93.687,17.556 94.131,17.467 94.609,17.467C95.138,17.467 95.601,17.556 95.997,17.733C96.394,17.911 96.722,18.162 96.981,18.485C97.246,18.804 97.442,19.185 97.569,19.627C97.702,20.069 97.768,20.557 97.768,21.09L97.768,21.794L92.053,21.794L92.053,20.611L96.141,20.611L96.141,20.481C96.132,20.185 96.072,19.907 95.963,19.648C95.858,19.388 95.696,19.178 95.478,19.019C95.259,18.859 94.967,18.779 94.603,18.779C94.329,18.779 94.085,18.839 93.871,18.957C93.662,19.071 93.486,19.237 93.345,19.456C93.204,19.675 93.094,19.939 93.017,20.249C92.944,20.554 92.907,20.898 92.907,21.281L92.907,21.555C92.907,21.878 92.951,22.179 93.037,22.457C93.128,22.731 93.26,22.97 93.434,23.175C93.607,23.38 93.816,23.542 94.063,23.66C94.309,23.774 94.589,23.831 94.903,23.831C95.3,23.831 95.653,23.751 95.963,23.592C96.273,23.432 96.542,23.207 96.769,22.915L97.638,23.756C97.478,23.988 97.271,24.212 97.016,24.426C96.76,24.635 96.448,24.806 96.079,24.939C95.715,25.071 95.291,25.137 94.808,25.137ZM104.549,23.359L106.258,17.604L107.311,17.604L107.023,19.326L105.301,25L104.357,25L104.549,23.359ZM103.544,17.604L104.877,23.387L104.986,25L103.934,25L101.931,17.604L103.544,17.604ZM108.91,23.318L110.202,17.604L111.809,17.604L109.812,25L108.76,25L108.91,23.318ZM107.488,17.604L109.177,23.291L109.389,25L108.445,25L106.702,19.319L106.415,17.604L107.488,17.604ZM114.693,17.604L114.693,25L113.039,25L113.039,17.604L114.693,17.604ZM112.93,15.662C112.93,15.412 113.012,15.204 113.176,15.04C113.344,14.871 113.577,14.787 113.873,14.787C114.165,14.787 114.395,14.871 114.563,15.04C114.732,15.204 114.816,15.412 114.816,15.662C114.816,15.908 114.732,16.113 114.563,16.277C114.395,16.441 114.165,16.523 113.873,16.523C113.577,16.523 113.344,16.441 113.176,16.277C113.012,16.113 112.93,15.908 112.93,15.662ZM119.889,17.604L119.889,18.807L115.719,18.807L115.719,17.604L119.889,17.604ZM116.922,15.792L118.569,15.792L118.569,22.956C118.569,23.184 118.601,23.359 118.665,23.482C118.733,23.601 118.827,23.681 118.945,23.722C119.064,23.763 119.203,23.783 119.362,23.783C119.476,23.783 119.586,23.776 119.69,23.763C119.795,23.749 119.88,23.735 119.943,23.722L119.95,24.98C119.813,25.02 119.654,25.057 119.472,25.089C119.294,25.121 119.089,25.137 118.856,25.137C118.478,25.137 118.143,25.071 117.852,24.939C117.56,24.802 117.332,24.581 117.168,24.275C117.004,23.97 116.922,23.565 116.922,23.059L116.922,15.792ZM122.787,14.5L122.787,25L121.146,25L121.146,14.5L122.787,14.5ZM122.5,21.028L121.967,21.022C121.971,20.511 122.042,20.039 122.179,19.606C122.32,19.174 122.516,18.798 122.767,18.479C123.022,18.155 123.327,17.907 123.683,17.733C124.038,17.556 124.432,17.467 124.865,17.467C125.23,17.467 125.558,17.517 125.85,17.617C126.146,17.717 126.401,17.879 126.615,18.103C126.829,18.321 126.991,18.608 127.101,18.964C127.215,19.315 127.271,19.743 127.271,20.249L127.271,25L125.617,25L125.617,20.235C125.617,19.88 125.565,19.597 125.46,19.388C125.36,19.178 125.212,19.028 125.016,18.937C124.82,18.841 124.58,18.793 124.298,18.793C124.002,18.793 123.74,18.852 123.512,18.971C123.288,19.089 123.102,19.251 122.951,19.456C122.801,19.661 122.687,19.898 122.609,20.167C122.536,20.436 122.5,20.723 122.5,21.028ZM140.232,19.914L140.232,23.715C140.091,23.902 139.87,24.107 139.569,24.33C139.273,24.549 138.879,24.738 138.387,24.898C137.895,25.057 137.282,25.137 136.548,25.137C135.924,25.137 135.352,25.032 134.832,24.822C134.312,24.608 133.864,24.296 133.485,23.886C133.112,23.476 132.822,22.977 132.617,22.389C132.412,21.796 132.31,21.122 132.31,20.365L132.31,19.675C132.31,18.923 132.403,18.253 132.59,17.665C132.781,17.073 133.055,16.571 133.41,16.161C133.766,15.751 134.194,15.441 134.695,15.231C135.201,15.017 135.773,14.91 136.411,14.91C137.227,14.91 137.901,15.047 138.435,15.32C138.972,15.589 139.387,15.963 139.679,16.441C139.97,16.92 140.155,17.467 140.232,18.082L138.551,18.082C138.496,17.736 138.389,17.426 138.229,17.152C138.075,16.879 137.851,16.665 137.56,16.51C137.272,16.35 136.899,16.27 136.438,16.27C136.042,16.27 135.693,16.346 135.393,16.496C135.092,16.647 134.841,16.868 134.641,17.159C134.445,17.451 134.297,17.806 134.196,18.226C134.096,18.645 134.046,19.123 134.046,19.661L134.046,20.365C134.046,20.912 134.103,21.398 134.217,21.821C134.335,22.245 134.504,22.603 134.723,22.895C134.946,23.186 135.217,23.407 135.536,23.558C135.855,23.703 136.215,23.776 136.616,23.776C137.008,23.776 137.329,23.744 137.58,23.681C137.831,23.612 138.029,23.533 138.175,23.441C138.325,23.346 138.441,23.255 138.523,23.168L138.523,21.192L136.452,21.192L136.452,19.914L140.232,19.914ZM141.654,21.384L141.654,21.227C141.654,20.693 141.732,20.199 141.887,19.743C142.042,19.283 142.265,18.884 142.557,18.547C142.853,18.205 143.213,17.941 143.637,17.754C144.065,17.563 144.548,17.467 145.086,17.467C145.628,17.467 146.111,17.563 146.535,17.754C146.964,17.941 147.326,18.205 147.622,18.547C147.918,18.884 148.144,19.283 148.299,19.743C148.454,20.199 148.531,20.693 148.531,21.227L148.531,21.384C148.531,21.917 148.454,22.412 148.299,22.867C148.144,23.323 147.918,23.722 147.622,24.064C147.326,24.401 146.966,24.665 146.542,24.856C146.118,25.043 145.637,25.137 145.1,25.137C144.557,25.137 144.072,25.043 143.644,24.856C143.22,24.665 142.86,24.401 142.563,24.064C142.267,23.722 142.042,23.323 141.887,22.867C141.732,22.412 141.654,21.917 141.654,21.384ZM143.302,21.227L143.302,21.384C143.302,21.717 143.336,22.031 143.404,22.327C143.473,22.623 143.58,22.883 143.726,23.106C143.871,23.33 144.058,23.505 144.286,23.633C144.514,23.76 144.785,23.824 145.1,23.824C145.405,23.824 145.669,23.76 145.893,23.633C146.12,23.505 146.307,23.33 146.453,23.106C146.599,22.883 146.706,22.623 146.774,22.327C146.847,22.031 146.884,21.717 146.884,21.384L146.884,21.227C146.884,20.898 146.847,20.589 146.774,20.297C146.706,20.001 146.597,19.739 146.446,19.511C146.3,19.283 146.114,19.105 145.886,18.978C145.662,18.845 145.396,18.779 145.086,18.779C144.776,18.779 144.507,18.845 144.279,18.978C144.056,19.105 143.871,19.283 143.726,19.511C143.58,19.739 143.473,20.001 143.404,20.297C143.336,20.589 143.302,20.898 143.302,21.227ZM149.598,21.384L149.598,21.227C149.598,20.693 149.675,20.199 149.83,19.743C149.985,19.283 150.208,18.884 150.5,18.547C150.796,18.205 151.156,17.941 151.58,17.754C152.008,17.563 152.492,17.467 153.029,17.467C153.572,17.467 154.055,17.563 154.479,17.754C154.907,17.941 155.269,18.205 155.565,18.547C155.862,18.884 156.087,19.283 156.242,19.743C156.397,20.199 156.475,20.693 156.475,21.227L156.475,21.384C156.475,21.917 156.397,22.412 156.242,22.867C156.087,23.323 155.862,23.722 155.565,24.064C155.269,24.401 154.909,24.665 154.485,24.856C154.062,25.043 153.581,25.137 153.043,25.137C152.501,25.137 152.015,25.043 151.587,24.856C151.163,24.665 150.803,24.401 150.507,24.064C150.211,23.722 149.985,23.323 149.83,22.867C149.675,22.412 149.598,21.917 149.598,21.384ZM151.245,21.227L151.245,21.384C151.245,21.717 151.279,22.031 151.348,22.327C151.416,22.623 151.523,22.883 151.669,23.106C151.815,23.33 152.002,23.505 152.229,23.633C152.457,23.76 152.729,23.824 153.043,23.824C153.348,23.824 153.613,23.76 153.836,23.633C154.064,23.505 154.251,23.33 154.396,23.106C154.542,22.883 154.649,22.623 154.718,22.327C154.791,22.031 154.827,21.717 154.827,21.384L154.827,21.227C154.827,20.898 154.791,20.589 154.718,20.297C154.649,20.001 154.54,19.739 154.39,19.511C154.244,19.283 154.057,19.105 153.829,18.978C153.606,18.845 153.339,18.779 153.029,18.779C152.719,18.779 152.451,18.845 152.223,18.978C151.999,19.105 151.815,19.283 151.669,19.511C151.523,19.739 151.416,20.001 151.348,20.297C151.279,20.589 151.245,20.898 151.245,21.227ZM162.593,17.604L164.09,17.604L164.09,24.795C164.09,25.46 163.949,26.025 163.666,26.49C163.383,26.955 162.989,27.308 162.483,27.55C161.978,27.796 161.392,27.919 160.727,27.919C160.444,27.919 160.13,27.878 159.783,27.796C159.441,27.714 159.109,27.582 158.785,27.399C158.466,27.222 158.2,26.987 157.985,26.695L158.758,25.725C159.022,26.039 159.314,26.269 159.633,26.415C159.952,26.561 160.287,26.634 160.638,26.634C161.016,26.634 161.337,26.563 161.602,26.422C161.87,26.285 162.078,26.082 162.224,25.814C162.369,25.545 162.442,25.217 162.442,24.829L162.442,19.278L162.593,17.604ZM157.568,21.384L157.568,21.24C157.568,20.68 157.637,20.169 157.773,19.709C157.91,19.244 158.106,18.845 158.361,18.513C158.617,18.176 158.926,17.918 159.291,17.74C159.656,17.558 160.068,17.467 160.528,17.467C161.007,17.467 161.415,17.553 161.752,17.727C162.094,17.9 162.379,18.148 162.606,18.472C162.834,18.791 163.012,19.174 163.14,19.62C163.272,20.062 163.37,20.554 163.434,21.097L163.434,21.555C163.374,22.083 163.274,22.566 163.133,23.004C162.992,23.441 162.805,23.82 162.572,24.139C162.34,24.458 162.053,24.704 161.711,24.877C161.374,25.05 160.975,25.137 160.515,25.137C160.063,25.137 159.656,25.043 159.291,24.856C158.931,24.67 158.621,24.408 158.361,24.07C158.106,23.733 157.91,23.337 157.773,22.881C157.637,22.421 157.568,21.922 157.568,21.384ZM159.216,21.24L159.216,21.384C159.216,21.721 159.248,22.036 159.312,22.327C159.38,22.619 159.482,22.876 159.619,23.1C159.76,23.318 159.938,23.491 160.152,23.619C160.371,23.742 160.629,23.804 160.925,23.804C161.312,23.804 161.629,23.722 161.875,23.558C162.126,23.394 162.317,23.173 162.449,22.895C162.586,22.612 162.682,22.298 162.736,21.951L162.736,20.714C162.709,20.445 162.652,20.194 162.565,19.962C162.483,19.73 162.372,19.527 162.23,19.354C162.089,19.176 161.911,19.039 161.697,18.943C161.483,18.843 161.23,18.793 160.938,18.793C160.642,18.793 160.385,18.857 160.166,18.984C159.947,19.112 159.767,19.287 159.626,19.511C159.489,19.734 159.387,19.994 159.318,20.29C159.25,20.586 159.216,20.903 159.216,21.24ZM167.562,14.5L167.562,25L165.908,25L165.908,14.5L167.562,14.5ZM172.628,25.137C172.081,25.137 171.587,25.048 171.145,24.87C170.707,24.688 170.333,24.435 170.023,24.111C169.718,23.788 169.483,23.407 169.319,22.97C169.155,22.532 169.073,22.061 169.073,21.555L169.073,21.281C169.073,20.703 169.158,20.178 169.326,19.709C169.495,19.24 169.729,18.839 170.03,18.506C170.331,18.169 170.687,17.911 171.097,17.733C171.507,17.556 171.951,17.467 172.43,17.467C172.958,17.467 173.421,17.556 173.817,17.733C174.214,17.911 174.542,18.162 174.802,18.485C175.066,18.804 175.262,19.185 175.39,19.627C175.522,20.069 175.588,20.557 175.588,21.09L175.588,21.794L169.873,21.794L169.873,20.611L173.961,20.611L173.961,20.481C173.952,20.185 173.893,19.907 173.783,19.648C173.678,19.388 173.517,19.178 173.298,19.019C173.079,18.859 172.787,18.779 172.423,18.779C172.149,18.779 171.906,18.839 171.691,18.957C171.482,19.071 171.306,19.237 171.165,19.456C171.024,19.675 170.914,19.939 170.837,20.249C170.764,20.554 170.728,20.898 170.728,21.281L170.728,21.555C170.728,21.878 170.771,22.179 170.857,22.457C170.949,22.731 171.081,22.97 171.254,23.175C171.427,23.38 171.637,23.542 171.883,23.66C172.129,23.774 172.409,23.831 172.724,23.831C173.12,23.831 173.473,23.751 173.783,23.592C174.093,23.432 174.362,23.207 174.59,22.915L175.458,23.756C175.299,23.988 175.091,24.212 174.836,24.426C174.581,24.635 174.269,24.806 173.899,24.939C173.535,25.071 173.111,25.137 172.628,25.137Z" style="fill:rgb(227,227,227);fill-opacity:0;fill-rule:nonzero;"/>
    </g>
    <g transform="matrix(3.02295,0,0,3.02615,-571.533,-51.3863)">
        <g transform="matrix(5.78292,0,0,5.78292,205.965,27.3367)">
            <path d="M0.492,-0.231L0.614,-0.231C0.61,-0.185 0.597,-0.143 0.575,-0.107C0.553,-0.071 0.522,-0.042 0.482,-0.021C0.442,-0.001 0.393,0.01 0.336,0.01C0.292,0.01 0.252,0.002 0.217,-0.014C0.182,-0.03 0.152,-0.052 0.127,-0.081C0.102,-0.111 0.083,-0.146 0.07,-0.187C0.056,-0.228 0.05,-0.275 0.05,-0.326L0.05,-0.385C0.05,-0.436 0.056,-0.482 0.07,-0.523C0.083,-0.565 0.103,-0.6 0.128,-0.63C0.154,-0.659 0.184,-0.682 0.22,-0.697C0.256,-0.713 0.296,-0.721 0.34,-0.721C0.397,-0.721 0.445,-0.71 0.484,-0.69C0.523,-0.669 0.553,-0.64 0.575,-0.603C0.597,-0.566 0.61,-0.524 0.615,-0.476L0.493,-0.476C0.489,-0.507 0.482,-0.534 0.471,-0.555C0.461,-0.577 0.444,-0.594 0.423,-0.605C0.402,-0.617 0.375,-0.623 0.34,-0.623C0.312,-0.623 0.288,-0.618 0.267,-0.607C0.246,-0.597 0.229,-0.581 0.215,-0.561C0.201,-0.541 0.19,-0.516 0.183,-0.486C0.176,-0.457 0.173,-0.423 0.173,-0.386L0.173,-0.326C0.173,-0.29 0.176,-0.257 0.182,-0.228C0.189,-0.199 0.198,-0.174 0.211,-0.153C0.225,-0.132 0.242,-0.116 0.262,-0.105C0.283,-0.094 0.307,-0.088 0.336,-0.088C0.371,-0.088 0.399,-0.094 0.421,-0.105C0.442,-0.116 0.459,-0.132 0.47,-0.153C0.481,-0.175 0.489,-0.201 0.492,-0.231Z" style="fill:rgb(227,227,227);fill-rule:nonzero;"/>
        </g>
        <g transform="matrix(5.78292,0,0,5.78292,209.74,27.3367)">
            <path d="M0.038,-0.258L0.038,-0.269C0.038,-0.308 0.043,-0.343 0.055,-0.376C0.066,-0.409 0.082,-0.437 0.103,-0.461C0.124,-0.485 0.15,-0.504 0.18,-0.518C0.21,-0.531 0.245,-0.538 0.283,-0.538C0.322,-0.538 0.356,-0.531 0.387,-0.518C0.417,-0.504 0.443,-0.485 0.465,-0.461C0.486,-0.437 0.502,-0.409 0.513,-0.376C0.524,-0.343 0.529,-0.308 0.529,-0.269L0.529,-0.258C0.529,-0.22 0.524,-0.185 0.513,-0.152C0.502,-0.12 0.486,-0.091 0.465,-0.067C0.443,-0.043 0.418,-0.024 0.387,-0.01C0.357,0.003 0.323,0.01 0.284,0.01C0.245,0.01 0.211,0.003 0.18,-0.01C0.15,-0.024 0.124,-0.043 0.103,-0.067C0.082,-0.091 0.066,-0.12 0.055,-0.152C0.043,-0.185 0.038,-0.22 0.038,-0.258ZM0.156,-0.269L0.156,-0.258C0.156,-0.235 0.158,-0.212 0.163,-0.191C0.168,-0.17 0.176,-0.151 0.186,-0.135C0.197,-0.119 0.21,-0.107 0.226,-0.098C0.242,-0.088 0.262,-0.084 0.284,-0.084C0.306,-0.084 0.325,-0.088 0.341,-0.098C0.357,-0.107 0.37,-0.119 0.381,-0.135C0.391,-0.151 0.399,-0.17 0.404,-0.191C0.409,-0.212 0.412,-0.235 0.412,-0.258L0.412,-0.269C0.412,-0.293 0.409,-0.315 0.404,-0.336C0.399,-0.357 0.391,-0.376 0.381,-0.392C0.37,-0.408 0.357,-0.421 0.341,-0.43C0.325,-0.44 0.305,-0.444 0.283,-0.444C0.261,-0.444 0.242,-0.44 0.226,-0.43C0.21,-0.421 0.197,-0.408 0.186,-0.392C0.176,-0.376 0.168,-0.357 0.163,-0.336C0.158,-0.315 0.156,-0.293 0.156,-0.269Z" style="fill:rgb(227,227,227);fill-rule:nonzero;"/>
        </g>
        <g transform="matrix(5.78292,0,0,5.78292,213.021,27.3367)">
            <path d="M0.177,-0.416L0.177,-0L0.06,-0L0.06,-0.528L0.17,-0.528L0.177,-0.416ZM0.156,-0.283L0.118,-0.284C0.119,-0.322 0.124,-0.356 0.134,-0.387C0.144,-0.418 0.158,-0.445 0.177,-0.468C0.196,-0.49 0.218,-0.508 0.243,-0.52C0.269,-0.532 0.298,-0.538 0.329,-0.538C0.355,-0.538 0.378,-0.535 0.398,-0.527C0.419,-0.52 0.437,-0.509 0.451,-0.494C0.466,-0.478 0.478,-0.458 0.485,-0.433C0.493,-0.408 0.497,-0.377 0.497,-0.341L0.497,-0L0.379,-0L0.379,-0.342C0.379,-0.367 0.375,-0.387 0.368,-0.402C0.361,-0.417 0.35,-0.427 0.336,-0.434C0.322,-0.44 0.305,-0.443 0.285,-0.443C0.264,-0.443 0.246,-0.439 0.23,-0.431C0.214,-0.422 0.201,-0.411 0.19,-0.396C0.179,-0.381 0.171,-0.364 0.165,-0.345C0.159,-0.326 0.156,-0.305 0.156,-0.283Z" style="fill:rgb(227,227,227);fill-rule:nonzero;"/>
        </g>
        <g transform="matrix(5.78292,0,0,5.78292,216.24,27.3367)">
            <path d="M0.303,-0.528L0.303,-0.442L0.005,-0.442L0.005,-0.528L0.303,-0.528ZM0.091,-0.658L0.208,-0.658L0.208,-0.146C0.208,-0.13 0.211,-0.117 0.215,-0.109C0.22,-0.1 0.227,-0.094 0.235,-0.091C0.244,-0.088 0.254,-0.087 0.265,-0.087C0.273,-0.087 0.281,-0.087 0.289,-0.088C0.296,-0.089 0.302,-0.091 0.307,-0.091L0.307,-0.002C0.298,0.002 0.286,0.004 0.273,0.006C0.26,0.009 0.246,0.01 0.229,0.01C0.202,0.01 0.178,0.005 0.157,-0.005C0.136,-0.014 0.12,-0.03 0.108,-0.052C0.097,-0.074 0.091,-0.103 0.091,-0.139L0.091,-0.658Z" style="fill:rgb(227,227,227);fill-rule:nonzero;"/>
        </g>
        <g transform="matrix(5.78292,0,0,5.78292,218.168,27.3367)">
            <path d="M0.187,-0.528L0.187,-0L0.068,-0L0.068,-0.528L0.187,-0.528ZM0.061,-0.667C0.061,-0.685 0.066,-0.7 0.078,-0.712C0.09,-0.724 0.107,-0.729 0.128,-0.729C0.149,-0.729 0.165,-0.724 0.177,-0.712C0.189,-0.7 0.195,-0.685 0.195,-0.667C0.195,-0.65 0.189,-0.635 0.177,-0.623C0.165,-0.611 0.149,-0.605 0.128,-0.605C0.107,-0.605 0.09,-0.611 0.078,-0.623C0.066,-0.635 0.061,-0.65 0.061,-0.667Z" style="fill:rgb(227,227,227);fill-rule:nonzero;"/>
        </g>
        <g transform="matrix(5.78292,0,0,5.78292,219.641,27.3367)">
            <path d="M0.177,-0.416L0.177,-0L0.06,-0L0.06,-0.528L0.17,-0.528L0.177,-0.416ZM0.156,-0.283L0.118,-0.284C0.119,-0.322 0.124,-0.356 0.134,-0.387C0.144,-0.418 0.158,-0.445 0.177,-0.468C0.196,-0.49 0.218,-0.508 0.243,-0.52C0.269,-0.532 0.298,-0.538 0.329,-0.538C0.355,-0.538 0.378,-0.535 0.398,-0.527C0.419,-0.52 0.437,-0.509 0.451,-0.494C0.466,-0.478 0.478,-0.458 0.485,-0.433C0.493,-0.408 0.497,-0.377 0.497,-0.341L0.497,-0L0.379,-0L0.379,-0.342C0.379,-0.367 0.375,-0.387 0.368,-0.402C0.361,-0.417 0.35,-0.427 0.336,-0.434C0.322,-0.44 0.305,-0.443 0.285,-0.443C0.264,-0.443 0.246,-0.439 0.23,-0.431C0.214,-0.422 0.201,-0.411 0.19,-0.396C0.179,-0.381 0.171,-0.364 0.165,-0.345C0.159,-0.326 0.156,-0.305 0.156,-0.283Z" style="fill:rgb(227,227,227);fill-rule:nonzero;"/>
        </g>
        <g transform="matrix(5.78292,0,0,5.78292,222.861,27.3367)">
            <path d="M0.378,-0.124L0.378,-0.528L0.497,-0.528L0.497,-0L0.385,-0L0.378,-0.124ZM0.395,-0.234L0.435,-0.235C0.435,-0.2 0.431,-0.167 0.423,-0.138C0.415,-0.108 0.403,-0.082 0.387,-0.06C0.371,-0.038 0.35,-0.021 0.324,-0.009C0.299,0.004 0.268,0.01 0.233,0.01C0.207,0.01 0.183,0.006 0.162,-0.001C0.141,-0.009 0.122,-0.02 0.107,-0.036C0.091,-0.052 0.079,-0.072 0.071,-0.097C0.062,-0.122 0.058,-0.152 0.058,-0.187L0.058,-0.528L0.176,-0.528L0.176,-0.186C0.176,-0.167 0.178,-0.151 0.183,-0.138C0.187,-0.125 0.193,-0.115 0.201,-0.107C0.209,-0.099 0.218,-0.094 0.229,-0.09C0.239,-0.087 0.25,-0.085 0.262,-0.085C0.295,-0.085 0.322,-0.092 0.341,-0.105C0.36,-0.118 0.374,-0.136 0.382,-0.159C0.391,-0.181 0.395,-0.206 0.395,-0.234Z" style="fill:rgb(227,227,227);fill-rule:nonzero;"/>
        </g>
        <g transform="matrix(5.78292,0,0,5.78292,226.077,27.3367)">
            <path d="M0.358,-0.106L0.358,-0.358C0.358,-0.377 0.355,-0.393 0.348,-0.407C0.341,-0.42 0.331,-0.431 0.317,-0.439C0.303,-0.446 0.286,-0.45 0.265,-0.45C0.246,-0.45 0.229,-0.447 0.215,-0.44C0.201,-0.434 0.19,-0.425 0.183,-0.414C0.175,-0.403 0.171,-0.39 0.171,-0.376L0.054,-0.376C0.054,-0.397 0.059,-0.417 0.069,-0.436C0.079,-0.456 0.094,-0.473 0.113,-0.489C0.132,-0.504 0.155,-0.516 0.182,-0.525C0.208,-0.534 0.238,-0.538 0.272,-0.538C0.311,-0.538 0.347,-0.531 0.377,-0.518C0.408,-0.505 0.432,-0.485 0.45,-0.458C0.468,-0.431 0.476,-0.397 0.476,-0.357L0.476,-0.122C0.476,-0.098 0.478,-0.077 0.482,-0.058C0.485,-0.038 0.49,-0.022 0.496,-0.008L0.496,-0L0.376,-0C0.37,-0.013 0.366,-0.029 0.363,-0.048C0.36,-0.068 0.358,-0.087 0.358,-0.106ZM0.376,-0.321L0.377,-0.249L0.292,-0.249C0.27,-0.249 0.251,-0.247 0.234,-0.243C0.218,-0.238 0.204,-0.232 0.193,-0.225C0.182,-0.217 0.174,-0.207 0.168,-0.196C0.163,-0.185 0.16,-0.173 0.16,-0.159C0.16,-0.145 0.163,-0.132 0.17,-0.12C0.176,-0.109 0.186,-0.1 0.198,-0.093C0.211,-0.087 0.226,-0.083 0.243,-0.083C0.268,-0.083 0.289,-0.088 0.307,-0.098C0.325,-0.108 0.339,-0.12 0.35,-0.135C0.36,-0.149 0.366,-0.163 0.366,-0.177L0.404,-0.124C0.4,-0.111 0.394,-0.096 0.384,-0.081C0.375,-0.066 0.362,-0.051 0.347,-0.037C0.332,-0.024 0.314,-0.012 0.293,-0.004C0.272,0.005 0.248,0.01 0.221,0.01C0.186,0.01 0.155,0.003 0.128,-0.011C0.101,-0.025 0.08,-0.043 0.065,-0.067C0.05,-0.091 0.042,-0.118 0.042,-0.148C0.042,-0.176 0.047,-0.2 0.058,-0.222C0.069,-0.244 0.084,-0.262 0.105,-0.276C0.125,-0.291 0.151,-0.302 0.181,-0.31C0.211,-0.317 0.245,-0.321 0.283,-0.321L0.376,-0.321Z" style="fill:rgb(227,227,227);fill-rule:nonzero;"/>
        </g>
        <g transform="matrix(5.78292,0,0,5.78292,229.195,27.3367)">
            <path d="M0.179,-0.428L0.179,-0L0.061,-0L0.061,-0.528L0.173,-0.528L0.179,-0.428ZM0.341,-0.532L0.339,-0.422C0.332,-0.424 0.324,-0.425 0.316,-0.425C0.308,-0.426 0.3,-0.426 0.291,-0.426C0.271,-0.426 0.254,-0.423 0.238,-0.418C0.223,-0.412 0.21,-0.404 0.2,-0.393C0.19,-0.383 0.182,-0.37 0.176,-0.355C0.171,-0.34 0.168,-0.323 0.166,-0.305L0.139,-0.303C0.139,-0.336 0.143,-0.367 0.149,-0.395C0.156,-0.423 0.166,-0.448 0.179,-0.47C0.192,-0.491 0.209,-0.508 0.229,-0.52C0.249,-0.532 0.272,-0.538 0.299,-0.538C0.306,-0.538 0.313,-0.537 0.322,-0.536C0.33,-0.535 0.336,-0.533 0.341,-0.532Z" style="fill:rgb(227,227,227);fill-rule:nonzero;"/>
        </g>
        <g transform="matrix(5.78292,0,0,5.78292,231.24,27.3367)">
        </g>
        <g transform="matrix(5.78292,0,0,5.78292,232.677,27.3367)">
            <path d="M0.276,-0.084C0.296,-0.084 0.313,-0.088 0.328,-0.095C0.344,-0.103 0.357,-0.114 0.366,-0.127C0.376,-0.141 0.381,-0.157 0.382,-0.175L0.493,-0.175C0.492,-0.141 0.482,-0.109 0.462,-0.081C0.443,-0.054 0.417,-0.031 0.385,-0.015C0.353,0.002 0.317,0.01 0.278,0.01C0.237,0.01 0.202,0.003 0.172,-0.011C0.142,-0.025 0.117,-0.044 0.098,-0.068C0.078,-0.093 0.063,-0.121 0.053,-0.153C0.043,-0.185 0.038,-0.219 0.038,-0.256L0.038,-0.273C0.038,-0.309 0.043,-0.343 0.053,-0.375C0.063,-0.408 0.078,-0.436 0.098,-0.46C0.117,-0.484 0.142,-0.504 0.172,-0.517C0.202,-0.531 0.237,-0.538 0.277,-0.538C0.32,-0.538 0.357,-0.53 0.389,-0.513C0.421,-0.496 0.446,-0.473 0.464,-0.443C0.482,-0.413 0.492,-0.379 0.493,-0.339L0.382,-0.339C0.381,-0.359 0.376,-0.377 0.367,-0.392C0.359,-0.408 0.347,-0.421 0.331,-0.43C0.316,-0.44 0.297,-0.444 0.276,-0.444C0.252,-0.444 0.233,-0.44 0.217,-0.43C0.201,-0.42 0.189,-0.407 0.18,-0.391C0.171,-0.374 0.165,-0.356 0.161,-0.336C0.158,-0.315 0.156,-0.294 0.156,-0.273L0.156,-0.256C0.156,-0.234 0.158,-0.213 0.161,-0.192C0.165,-0.172 0.171,-0.153 0.18,-0.137C0.189,-0.121 0.201,-0.108 0.217,-0.098C0.232,-0.089 0.252,-0.084 0.276,-0.084Z" style="fill:rgb(227,227,227);fill-rule:nonzero;"/>
        </g>
        <g transform="matrix(5.78292,0,0,5.78292,235.696,27.3367)">
            <path d="M0.038,-0.258L0.038,-0.269C0.038,-0.308 0.043,-0.343 0.055,-0.376C0.066,-0.409 0.082,-0.437 0.103,-0.461C0.124,-0.485 0.15,-0.504 0.18,-0.518C0.21,-0.531 0.245,-0.538 0.283,-0.538C0.322,-0.538 0.356,-0.531 0.387,-0.518C0.417,-0.504 0.443,-0.485 0.465,-0.461C0.486,-0.437 0.502,-0.409 0.513,-0.376C0.524,-0.343 0.529,-0.308 0.529,-0.269L0.529,-0.258C0.529,-0.22 0.524,-0.185 0.513,-0.152C0.502,-0.12 0.486,-0.091 0.465,-0.067C0.443,-0.043 0.418,-0.024 0.387,-0.01C0.357,0.003 0.323,0.01 0.284,0.01C0.245,0.01 0.211,0.003 0.18,-0.01C0.15,-0.024 0.124,-0.043 0.103,-0.067C0.082,-0.091 0.066,-0.12 0.055,-0.152C0.043,-0.185 0.038,-0.22 0.038,-0.258ZM0.156,-0.269L0.156,-0.258C0.156,-0.235 0.158,-0.212 0.163,-0.191C0.168,-0.17 0.176,-0.151 0.186,-0.135C0.197,-0.119 0.21,-0.107 0.226,-0.098C0.242,-0.088 0.262,-0.084 0.284,-0.084C0.306,-0.084 0.325,-0.088 0.341,-0.098C0.357,-0.107 0.37,-0.119 0.381,-0.135C0.391,-0.151 0.399,-0.17 0.404,-0.191C0.409,-0.212 0.412,-0.235 0.412,-0.258L0.412,-0.269C0.412,-0.293 0.409,-0.315 0.404,-0.336C0.399,-0.357 0.391,-0.376 0.381,-0.392C0.37,-0.408 0.357,-0.421 0.341,-0.43C0.325,-0.44 0.305,-0.444 0.283,-0.444C0.261,-0.444 0.242,-0.44 0.226,-0.43C0.21,-0.421 0.197,-0.408 0.186,-0.392C0.176,-0.376 0.168,-0.357 0.163,-0.336C0.158,-0.315 0.156,-0.293 0.156,-0.269Z" style="fill:rgb(227,227,227);fill-rule:nonzero;"/>
        </g>
        <g transform="matrix(5.78292,0,0,5.78292,238.977,27.3367)">
            <path d="M0.178,-0.421L0.178,-0L0.061,-0L0.061,-0.528L0.172,-0.528L0.178,-0.421ZM0.159,-0.283L0.119,-0.284C0.119,-0.321 0.124,-0.354 0.133,-0.385C0.142,-0.416 0.155,-0.443 0.173,-0.466C0.19,-0.489 0.212,-0.507 0.238,-0.519C0.265,-0.532 0.295,-0.538 0.329,-0.538C0.354,-0.538 0.376,-0.535 0.396,-0.528C0.416,-0.521 0.433,-0.51 0.448,-0.495C0.463,-0.48 0.474,-0.461 0.482,-0.437C0.49,-0.414 0.494,-0.385 0.494,-0.352L0.494,-0L0.377,-0L0.377,-0.342C0.377,-0.367 0.373,-0.388 0.365,-0.402C0.357,-0.417 0.346,-0.428 0.332,-0.434C0.318,-0.44 0.301,-0.443 0.282,-0.443C0.26,-0.443 0.241,-0.439 0.225,-0.431C0.21,-0.422 0.197,-0.411 0.187,-0.396C0.178,-0.381 0.171,-0.364 0.166,-0.345C0.162,-0.326 0.159,-0.305 0.159,-0.283ZM0.487,-0.315L0.432,-0.303C0.432,-0.335 0.436,-0.365 0.445,-0.393C0.454,-0.422 0.467,-0.447 0.485,-0.468C0.502,-0.49 0.524,-0.507 0.549,-0.52C0.575,-0.532 0.605,-0.538 0.638,-0.538C0.665,-0.538 0.689,-0.534 0.71,-0.527C0.731,-0.52 0.75,-0.508 0.764,-0.493C0.779,-0.477 0.791,-0.457 0.799,-0.432C0.807,-0.407 0.811,-0.377 0.811,-0.342L0.811,-0L0.693,-0L0.693,-0.342C0.693,-0.369 0.689,-0.39 0.681,-0.404C0.673,-0.419 0.662,-0.429 0.648,-0.435C0.634,-0.44 0.618,-0.443 0.598,-0.443C0.58,-0.443 0.564,-0.44 0.55,-0.433C0.536,-0.426 0.524,-0.417 0.515,-0.405C0.506,-0.394 0.499,-0.38 0.494,-0.365C0.489,-0.349 0.487,-0.333 0.487,-0.315Z" style="fill:rgb(227,227,227);fill-rule:nonzero;"/>
        </g>
        <g transform="matrix(5.78292,0,0,5.78292,244.015,27.3367)">
        </g>
        <g transform="matrix(5.78292,0,0,5.78292,245.451,27.3367)">
            <path d="M0.618,-0.364L0.618,-0.092C0.608,-0.078 0.593,-0.064 0.571,-0.048C0.55,-0.032 0.522,-0.019 0.486,-0.007C0.451,0.004 0.408,0.01 0.355,0.01C0.31,0.01 0.27,0.002 0.232,-0.013C0.195,-0.028 0.163,-0.05 0.137,-0.08C0.11,-0.109 0.089,-0.144 0.074,-0.187C0.06,-0.229 0.052,-0.277 0.052,-0.331L0.052,-0.38C0.052,-0.434 0.059,-0.482 0.073,-0.524C0.086,-0.566 0.105,-0.602 0.131,-0.631C0.156,-0.661 0.187,-0.683 0.223,-0.698C0.259,-0.713 0.3,-0.721 0.345,-0.721C0.403,-0.721 0.452,-0.711 0.49,-0.692C0.528,-0.672 0.558,-0.646 0.579,-0.611C0.599,-0.577 0.613,-0.538 0.618,-0.494L0.498,-0.494C0.494,-0.519 0.486,-0.541 0.475,-0.561C0.464,-0.58 0.448,-0.595 0.427,-0.607C0.407,-0.618 0.38,-0.624 0.347,-0.624C0.319,-0.624 0.294,-0.618 0.273,-0.607C0.251,-0.597 0.233,-0.581 0.219,-0.56C0.205,-0.539 0.194,-0.514 0.187,-0.484C0.18,-0.454 0.176,-0.42 0.176,-0.381L0.176,-0.331C0.176,-0.292 0.181,-0.257 0.189,-0.227C0.197,-0.197 0.209,-0.171 0.225,-0.151C0.241,-0.13 0.26,-0.114 0.283,-0.103C0.306,-0.093 0.331,-0.087 0.36,-0.087C0.388,-0.087 0.411,-0.09 0.429,-0.094C0.447,-0.099 0.461,-0.105 0.472,-0.112C0.482,-0.118 0.49,-0.125 0.496,-0.131L0.496,-0.272L0.348,-0.272L0.348,-0.364L0.618,-0.364Z" style="fill:rgb(227,227,227);fill-rule:nonzero;"/>
        </g>
        <g transform="matrix(5.78292,0,0,5.78292,249.391,27.3367)">
            <path d="M0.038,-0.258L0.038,-0.269C0.038,-0.308 0.043,-0.343 0.055,-0.376C0.066,-0.409 0.082,-0.437 0.103,-0.461C0.124,-0.485 0.15,-0.504 0.18,-0.518C0.21,-0.531 0.245,-0.538 0.283,-0.538C0.322,-0.538 0.356,-0.531 0.387,-0.518C0.417,-0.504 0.443,-0.485 0.465,-0.461C0.486,-0.437 0.502,-0.409 0.513,-0.376C0.524,-0.343 0.529,-0.308 0.529,-0.269L0.529,-0.258C0.529,-0.22 0.524,-0.185 0.513,-0.152C0.502,-0.12 0.486,-0.091 0.465,-0.067C0.443,-0.043 0.418,-0.024 0.387,-0.01C0.357,0.003 0.323,0.01 0.284,0.01C0.245,0.01 0.211,0.003 0.18,-0.01C0.15,-0.024 0.124,-0.043 0.103,-0.067C0.082,-0.091 0.066,-0.12 0.055,-0.152C0.043,-0.185 0.038,-0.22 0.038,-0.258ZM0.156,-0.269L0.156,-0.258C0.156,-0.235 0.158,-0.212 0.163,-0.191C0.168,-0.17 0.176,-0.151 0.186,-0.135C0.197,-0.119 0.21,-0.107 0.226,-0.098C0.242,-0.088 0.262,-0.084 0.284,-0.084C0.306,-0.084 0.325,-0.088 0.341,-0.098C0.357,-0.107 0.37,-0.119 0.381,-0.135C0.391,-0.151 0.399,-0.17 0.404,-0.191C0.409,-0.212 0.412,-0.235 0.412,-0.258L0.412,-0.269C0.412,-0.293 0.409,-0.315 0.404,-0.336C0.399,-0.357 0.391,-0.376 0.381,-0.392C0.37,-0.408 0.357,-0.421 0.341,-0.43C0.325,-0.44 0.305,-0.444 0.283,-0.444C0.261,-0.444 0.242,-0.44 0.226,-0.43C0.21,-0.421 0.197,-0.408 0.186,-0.392C0.176,-0.376 0.168,-0.357 0.163,-0.336C0.158,-0.315 0.156,-0.293 0.156,-0.269Z" style="fill:rgb(227,227,227);fill-rule:nonzero;"/>
        </g>
        <g transform="matrix(5.78292,0,0,5.78292,252.672,27.3367)">
            <path d="M0.038,-0.258L0.038,-0.269C0.038,-0.308 0.043,-0.343 0.055,-0.376C0.066,-0.409 0.082,-0.437 0.103,-0.461C0.124,-0.485 0.15,-0.504 0.18,-0.518C0.21,-0.531 0.245,-0.538 0.283,-0.538C0.322,-0.538 0.356,-0.531 0.387,-0.518C0.417,-0.504 0.443,-0.485 0.465,-0.461C0.486,-0.437 0.502,-0.409 0.513,-0.376C0.524,-0.343 0.529,-0.308 0.529,-0.269L0.529,-0.258C0.529,-0.22 0.524,-0.185 0.513,-0.152C0.502,-0.12 0.486,-0.091 0.465,-0.067C0.443,-0.043 0.418,-0.024 0.387,-0.01C0.357,0.003 0.323,0.01 0.284,0.01C0.245,0.01 0.211,0.003 0.18,-0.01C0.15,-0.024 0.124,-0.043 0.103,-0.067C0.082,-0.091 0.066,-0.12 0.055,-0.152C0.043,-0.185 0.038,-0.22 0.038,-0.258ZM0.156,-0.269L0.156,-0.258C0.156,-0.235 0.158,-0.212 0.163,-0.191C0.168,-0.17 0.176,-0.151 0.186,-0.135C0.197,-0.119 0.21,-0.107 0.226,-0.098C0.242,-0.088 0.262,-0.084 0.284,-0.084C0.306,-0.084 0.325,-0.088 0.341,-0.098C0.357,-0.107 0.37,-0.119 0.381,-0.135C0.391,-0.151 0.399,-0.17 0.404,-0.191C0.409,-0.212 0.412,-0.235 0.412,-0.258L0.412,-0.269C0.412,-0.293 0.409,-0.315 0.404,-0.336C0.399,-0.357 0.391,-0.376 0.381,-0.392C0.37,-0.408 0.357,-0.421 0.341,-0.43C0.325,-0.44 0.305,-0.444 0.283,-0.444C0.261,-0.444 0.242,-0.44 0.226,-0.43C0.21,-0.421 0.197,-0.408 0.186,-0.392C0.176,-0.376 0.168,-0.357 0.163,-0.336C0.158,-0.315 0.156,-0.293 0.156,-0.269Z" style="fill:rgb(227,227,227);fill-rule:nonzero;"/>
        </g>
        <g transform="matrix(5.78292,0,0,5.78292,255.952,27.3367)">
            <path d="M0.399,-0.528L0.506,-0.528L0.506,-0.015C0.506,0.033 0.496,0.073 0.476,0.106C0.455,0.14 0.427,0.165 0.391,0.182C0.355,0.2 0.313,0.208 0.266,0.208C0.246,0.208 0.223,0.205 0.198,0.2C0.174,0.194 0.15,0.184 0.127,0.172C0.104,0.159 0.085,0.142 0.07,0.121L0.125,0.052C0.144,0.074 0.165,0.091 0.188,0.101C0.21,0.111 0.234,0.117 0.259,0.117C0.286,0.117 0.309,0.112 0.328,0.102C0.347,0.092 0.362,0.077 0.372,0.058C0.383,0.039 0.388,0.016 0.388,-0.012L0.388,-0.409L0.399,-0.528ZM0.04,-0.258L0.04,-0.268C0.04,-0.309 0.045,-0.345 0.055,-0.378C0.064,-0.411 0.078,-0.44 0.097,-0.464C0.115,-0.487 0.137,-0.506 0.163,-0.519C0.189,-0.532 0.219,-0.538 0.251,-0.538C0.286,-0.538 0.315,-0.532 0.339,-0.519C0.364,-0.507 0.384,-0.489 0.4,-0.466C0.416,-0.443 0.429,-0.416 0.438,-0.384C0.448,-0.353 0.455,-0.317 0.459,-0.279L0.459,-0.246C0.455,-0.208 0.448,-0.174 0.438,-0.143C0.428,-0.111 0.414,-0.084 0.398,-0.062C0.381,-0.039 0.361,-0.021 0.336,-0.009C0.312,0.004 0.283,0.01 0.25,0.01C0.218,0.01 0.189,0.003 0.163,-0.01C0.137,-0.024 0.115,-0.042 0.097,-0.066C0.078,-0.09 0.064,-0.119 0.055,-0.152C0.045,-0.184 0.04,-0.22 0.04,-0.258ZM0.158,-0.268L0.158,-0.258C0.158,-0.234 0.16,-0.212 0.165,-0.191C0.17,-0.17 0.177,-0.152 0.187,-0.136C0.197,-0.12 0.21,-0.108 0.225,-0.099C0.24,-0.09 0.259,-0.085 0.28,-0.085C0.307,-0.085 0.33,-0.091 0.348,-0.103C0.366,-0.115 0.379,-0.131 0.389,-0.151C0.399,-0.171 0.405,-0.193 0.409,-0.218L0.409,-0.306C0.407,-0.325 0.403,-0.343 0.397,-0.36C0.391,-0.377 0.383,-0.391 0.373,-0.404C0.363,-0.416 0.35,-0.426 0.335,-0.433C0.32,-0.44 0.302,-0.443 0.281,-0.443C0.259,-0.443 0.241,-0.439 0.226,-0.43C0.21,-0.42 0.197,-0.408 0.187,-0.392C0.177,-0.376 0.17,-0.358 0.165,-0.336C0.16,-0.315 0.158,-0.293 0.158,-0.268Z" style="fill:rgb(227,227,227);fill-rule:nonzero;"/>
        </g>
        <g transform="matrix(5.78292,0,0,5.78292,259.23,27.3367)">
            <rect x="0.068" y="-0.75" width="0.118" height="0.75" style="fill:rgb(227,227,227);fill-rule:nonzero;"/>
        </g>
        <g transform="matrix(5.78292,0,0,5.78292,260.703,27.3367)">
            <path d="M0.293,0.01C0.254,0.01 0.219,0.003 0.188,-0.01C0.157,-0.022 0.13,-0.04 0.108,-0.064C0.086,-0.087 0.069,-0.114 0.057,-0.145C0.046,-0.176 0.04,-0.21 0.04,-0.246L0.04,-0.266C0.04,-0.307 0.046,-0.345 0.058,-0.378C0.07,-0.412 0.086,-0.44 0.108,-0.464C0.13,-0.488 0.155,-0.506 0.184,-0.519C0.213,-0.532 0.245,-0.538 0.279,-0.538C0.317,-0.538 0.35,-0.532 0.378,-0.519C0.407,-0.506 0.43,-0.489 0.449,-0.466C0.468,-0.443 0.482,-0.415 0.491,-0.384C0.5,-0.352 0.505,-0.317 0.505,-0.279L0.505,-0.229L0.097,-0.229L0.097,-0.314L0.389,-0.314L0.389,-0.323C0.388,-0.344 0.384,-0.364 0.376,-0.382C0.369,-0.401 0.357,-0.416 0.341,-0.427C0.326,-0.439 0.305,-0.444 0.279,-0.444C0.259,-0.444 0.242,-0.44 0.227,-0.432C0.212,-0.424 0.199,-0.412 0.189,-0.396C0.179,-0.38 0.171,-0.362 0.166,-0.34C0.16,-0.318 0.158,-0.293 0.158,-0.266L0.158,-0.246C0.158,-0.223 0.161,-0.202 0.167,-0.182C0.174,-0.162 0.183,-0.145 0.195,-0.13C0.208,-0.116 0.223,-0.104 0.24,-0.096C0.258,-0.088 0.278,-0.084 0.3,-0.084C0.329,-0.084 0.354,-0.089 0.376,-0.101C0.398,-0.112 0.417,-0.128 0.433,-0.149L0.495,-0.089C0.484,-0.072 0.47,-0.056 0.451,-0.041C0.433,-0.026 0.411,-0.014 0.384,-0.004C0.358,0.005 0.328,0.01 0.293,0.01Z" style="fill:rgb(227,227,227);fill-rule:nonzero;"/>
        </g>
        <g transform="matrix(5.78292,0,0,5.78292,263.801,27.3367)">
        </g>
    </g>
    <g transform="matrix(1.24868,0,0,1.25,0,0)">
        <path d="M188.5,3.3L188.5,36.7C188.5,38.245 187.244,39.5 185.697,39.5L3.303,39.5C1.756,39.5 0.5,38.245 0.5,36.7L0.5,3.3C0.5,1.755 1.756,0.5 3.303,0.5L185.697,0.5C187.244,0.5 188.5,1.755 188.5,3.3Z" style="fill:none;stroke:rgb(142,145,143);stroke-width:1px;"/>
    </g>
</svg>
